{
    "asset": {
        "version": "2.0",
        "generator": "babylon.js glTF exporter for 3dsmax 2019 v20201020.3"
    },
    "extensionsUsed": [
        "KHR_materials_unlit"
    ],
    "scene": 0,
    "scenes": [
        {
            "nodes": [
                0,
                1
            ]
        }
    ],
    "nodes": [
        {
            "mesh": 0,
            "name": "dollhouse"
        },
        {
            "name": "Default light"
        }
    ],
    "meshes": [
        {
            "primitives": [
                {
                    "attributes": {
                        "POSITION": 1,
                        "NORMAL": 2,
                        "TEXCOORD_0": 3
                    },
                    "indices": 0,
                    "material": 0
                }
            ],
            "name": "dollhouse"
        }
    ],
    "accessors": [
        {
            "bufferView": 0,
            "componentType": 5123,
            "count": 42927,
            "type": "SCALAR",
            "name": "accessorIndices"
        },
        {
            "bufferView": 1,
            "componentType": 5126,
            "count": 42927,
            "max": [
                19.4898643,
                3.29999971,
                -2.152702
            ],
            "min": [
                11.6638594,
                -0.106999911,
                -16.2058315
            ],
            "type": "VEC3",
            "name": "accessorPositions"
        },
        {
            "bufferView": 1,
            "byteOffset": 515124,
            "componentType": 5126,
            "count": 42927,
            "type": "VEC3",
            "name": "accessorNormals"
        },
        {
            "bufferView": 2,
            "componentType": 5126,
            "count": 42927,
            "type": "VEC2",
            "name": "accessorUVs"
        }
    ],
    "bufferViews": [
        {
            "buffer": 0,
            "byteLength": 85856,
            "name": "bufferViewScalar"
        },
        {
            "buffer": 0,
            "byteOffset": 85856,
            "byteLength": 1030248,
            "byteStride": 12,
            "name": "bufferViewFloatVec3"
        },
        {
            "buffer": 0,
            "byteOffset": 1116104,
            "byteLength": 343416,
            "byteStride": 8,
            "name": "bufferViewFloatVec2"
        }
    ],
    "buffers": [
        {
            "uri": "dollhouse.bin",
            "byteLength": 1459520
        }
    ],
    "materials": [
        {
            "pbrMetallicRoughness": {
                "baseColorTexture": {
                    "index": 0
                },
                "metallicFactor": 0.0,
                "roughnessFactor": 0.450053632
            },
            "emissiveTexture": {
                "index": 0
            },
            "emissiveFactor": [
                1.0,
                1.0,
                1.0
            ],
            "name": "dollhouse_mtl",
            "extensions": {
                "KHR_materials_unlit": {}
            }
        }
    ],
    "textures": [
        {
            "sampler": 0,
            "source": 0,
            "name": "dollhouse.jpg"
        }
    ],
    "images": [
        {
            "uri": "./dollhouse.jpg"
        }
    ],
    "samplers": [
        {
            "magFilter": 9729,
            "minFilter": 9987
        }
    ]
}