{"asset":{"version":"2.0","generator":"babylon.js glTF exporter for 3dsmax 2019 v20201020.3"},"scene":0,"scenes":[{"nodes":[0,1]}],"nodes":[{"mesh":0,"translation":[15.31202,0.0,-4.79101038],"name":"navmesh"},{"name":"Default light"}],"meshes":[{"primitives":[{"attributes":{"POSITION":1,"NORMAL":2,"TEXCOORD_0":3},"indices":0}],"name":"navmesh"}],"accessors":[{"bufferView":0,"componentType":5123,"count":78,"type":"SCALAR","name":"accessorIndices"},{"bufferView":1,"componentType":5126,"count":78,"max":[3.25283313,0.0,2.602426],"min":[-3.23515868,0.0,-8.465997],"type":"VEC3","name":"accessorPositions"},{"bufferView":1,"byteOffset":936,"componentType":5126,"count":78,"type":"VEC3","name":"accessorNormals"},{"bufferView":2,"componentType":5126,"count":78,"type":"VEC2","name":"accessorUVs"}],"bufferViews":[{"buffer":0,"byteLength":156,"name":"bufferViewScalar"},{"buffer":0,"byteOffset":156,"byteLength":1872,"byteStride":12,"name":"bufferViewFloatVec3"},{"buffer":0,"byteOffset":2028,"byteLength":624,"byteStride":8,"name":"bufferViewFloatVec2"}],"buffers":[{"uri":"navmesh.bin","byteLength":2652}]}