# 3ds Max Wavefront OBJ Exporter v0.97b - (c)2007 guruware
# File Created: 07.06.2021 14:08:41

#
# object navmesh
#

v  1207.6862 0.0000 -635.6649
v  1207.6862 0.0000 -322.5372
v  1590.6561 0.0000 -322.5372
v  1264.1722 0.0000 -635.6649
v  1854.7179 0.0000 -322.5372
v  1854.7179 0.0000 -635.6649
v  1854.7179 0.0000 -959.1602
v  1264.1722 0.0000 -959.1602
v  1590.6561 0.0000 -218.8584
v  1854.7179 0.0000 -218.8584
v  1271.1577 0.0000 -990.1255
v  1486.2115 0.0000 -1037.8562
v  1333.1176 0.0000 -1037.9302
v  1292.8473 0.0000 -1015.9965
v  1583.5759 0.0000 -1143.5992
v  1492.7140 0.0000 -1325.1859
v  1854.7179 0.0000 -1100.3002
v  1608.3561 0.0000 -1100.8794
v  1596.2372 0.0000 -1107.3782
v  1586.5968 0.0000 -1123.0264
v  1587.8043 0.0000 -1162.5166
v  1595.1450 0.0000 -1174.2827
v  1605.3944 0.0000 -1183.7186
v  1616.6864 0.0000 -1189.7581
v  1618.9006 0.0000 -1270.3621
v  1619.0769 0.0000 -1325.7008
v  1855.8719 0.0000 -1273.3285
v  1856.4854 0.0000 -1189.7581
# 28 vertices

vn 0.0000 1.0000 -0.0000
# 1 vertex normals

vt 0.0000 1.0000 0.0000
vt 0.0000 0.0000 0.0000
vt 0.5000 0.0000 0.0000
vt 0.5000 1.0000 0.0000
vt 1.0000 0.0000 0.0000
vt 1.0000 1.0000 0.0000
vt 0.7536 1.0000 0.0000
vt 0.6450 1.0000 0.0000
# 8 texture coords

o navmesh
g navmesh
s 1
f 1/1/1 2/2/1 3/3/1 4/4/1 
f 3/3/1 5/5/1 6/6/1 4/4/1 
s off
f 4/4/1 6/6/1 7/6/1 8/4/1 
f 5/5/1 3/3/1 9/3/1 10/5/1 
f 8/4/1 7/6/1 11/4/1 
f 7/6/1 12/6/1 13/7/1 
f 13/7/1 14/8/1 7/6/1 
f 14/8/1 11/4/1 7/6/1 
f 12/6/1 15/6/1 16/6/1 
f 7/6/1 17/6/1 18/6/1 
f 12/6/1 7/6/1 18/6/1 19/6/1 
f 12/6/1 20/6/1 15/6/1 
f 12/6/1 19/6/1 20/6/1 
f 21/6/1 22/6/1 16/6/1 
f 23/6/1 24/6/1 16/6/1 
f 22/6/1 23/6/1 16/6/1 
f 16/6/1 15/6/1 21/6/1 
f 16/6/1 24/6/1 25/6/1 26/6/1 
f 24/6/1 27/6/1 25/6/1 
f 24/6/1 28/6/1 27/6/1 
# 6 polygons - 14 triangles

